<?xml version="1.0" standalone="no"?>
<!DOCTYPE svg PUBLIC "-//W3C//DTD SVG 20010904//EN"
 "http://www.w3.org/TR/2001/REC-SVG-20010904/DTD/svg10.dtd">
<svg version="1.0" xmlns="http://www.w3.org/2000/svg"
 width="700.000000pt" height="700.000000pt" viewBox="0 0 700.000000 700.000000"
 preserveAspectRatio="xMidYMid meet">
<metadata>
Created by potrace 1.11, written by Peter Selinger 2001-2013
</metadata>
<g transform="translate(0.000000,700.000000) scale(0.100000,-0.100000)"
fill="#000000" stroke="none">
<path d="M637 6984 c-299 -72 -531 -343 -613 -717 -22 -97 -26 -320 -8 -422
56 -315 259 -564 517 -632 52 -14 124 -17 469 -17 224 -1 410 -5 414 -9 4 -4
8 -501 8 -1105 1 -1027 2 -1100 18 -1125 16 -23 110 -89 259 -182 24 -15 46
-29 48 -31 4 -4 -11 -18 -129 -122 -150 -133 -180 -164 -189 -201 -9 -34 -7
-1432 2 -1476 2 -11 7 -42 12 -70 12 -79 13 -83 41 -179 51 -179 131 -320 246
-438 117 -120 243 -193 401 -233 l92 -23 2010 1 2010 2 80 23 c300 86 533 306
629 593 32 95 41 157 41 279 0 115 -8 176 -36 266 -91 297 -350 543 -646 613
l-52 13 0 1499 c0 1348 -2 1502 -16 1532 -11 23 -54 61 -138 122 -67 49 -148
107 -180 131 l-58 42 58 37 c32 20 99 63 149 94 68 44 95 67 108 95 31 66 7
134 -66 186 -111 78 -218 166 -219 180 0 8 -2 27 -3 43 -1 21 3 27 19 28 11 0
73 2 137 3 101 1 121 4 145 22 60 45 64 63 63 285 0 111 -2 204 -4 208 -2 3
-7 24 -10 46 -46 285 -273 533 -577 627 l-74 23 -2450 2 c-2070 1 -2459 -1
-2508 -13z"/>
</g>
</svg>
