<svg width="15" height="19" viewBox="0 0 15 19" fill="none" xmlns="http://www.w3.org/2000/svg">
<path d="M7.99934 0C7.53934 0 7.06934 0.0400001 6.59934 0.14C3.83934 0.67 1.63934 2.9 1.11934 5.66C0.639339 8.27 1.59934 10.67 3.33934 12.22C3.76934 12.6 3.99934 13.13 3.99934 13.69V16C3.99934 17.1 4.89934 18 5.99934 18H6.27934C6.62934 18.6 7.25934 19 7.99934 19C8.73934 19 9.37934 18.6 9.71934 18H9.99934C11.0993 18 11.9993 17.1 11.9993 16V13.69C11.9993 13.14 12.2193 12.6 12.6393 12.23C14.0893 10.95 14.9993 9.08 14.9993 7C14.9993 3.13 11.8693 0 7.99934 0ZM9.99934 16H5.99934V15H9.99934V16ZM9.99934 14H5.99934V13H9.99934V14ZM8.49934 8.41V11H7.49934V8.41L5.66934 6.59L6.37934 5.88L7.99934 7.5L9.61934 5.88L10.3293 6.59L8.49934 8.41Z" fill="#505565"/>
</svg>
