<svg width="26" height="24" viewBox="0 0 26 24" fill="none" xmlns="http://www.w3.org/2000/svg">
<g filter="url(#filter0_d)">
<path d="M4.92991 7.19281C5.36007 7.1169 5.7333 6.90815 6.0496 6.56655C6.36589 6.2123 6.52404 5.73153 6.52404 5.12424V2.39145C6.52404 1.61969 6.73912 1.04403 7.16928 0.664472C7.59944 0.284918 8.21306 0.095141 9.01012 0.095141H10.1298V1.51847H9.01012C8.46609 1.51847 8.19408 1.80946 8.19408 2.39145V4.95344C8.19408 5.63664 8.06756 6.22495 7.81452 6.71837C7.57414 7.19914 7.11867 7.52176 6.44813 7.68623V7.72419C7.11867 7.88866 7.57414 8.21761 7.81452 8.71103C8.06756 9.1918 8.19408 9.77379 8.19408 10.457V13C8.19408 13.5567 8.46609 13.835 9.01012 13.835H10.1298V15.2584H9.01012C8.21306 15.2584 7.59944 15.0686 7.16928 14.689C6.73912 14.3095 6.52404 13.7465 6.52404 13V10.2862C6.52404 9.6789 6.36589 9.20445 6.0496 8.86285C5.7333 8.5086 5.36007 8.29352 4.92991 8.21761V7.19281ZM17.8726 0.095141C18.6697 0.095141 19.2833 0.284918 19.7135 0.664472C20.1436 1.04403 20.3587 1.61969 20.3587 2.39145V5.12424C20.3587 5.73153 20.5169 6.2123 20.8332 6.56655C21.1494 6.90815 21.5227 7.1169 21.9528 7.19281V8.21761C21.5227 8.29352 21.1494 8.5086 20.8332 8.86285C20.5169 9.20445 20.3587 9.6789 20.3587 10.2862V13C20.3587 13.7465 20.1436 14.3095 19.7135 14.689C19.2833 15.0686 18.6697 15.2584 17.8726 15.2584H16.7529V13.835H17.8726C18.4167 13.835 18.6887 13.5567 18.6887 13V10.457C18.6887 9.77379 18.8089 9.1918 19.0492 8.71103C19.3023 8.21761 19.7641 7.88866 20.4346 7.72419V7.68623C19.7641 7.52176 19.3023 7.19914 19.0492 6.71837C18.8089 6.22495 18.6887 5.63664 18.6887 4.95344V2.39145C18.6887 1.80946 18.4167 1.51847 17.8726 1.51847H16.7529V0.095141H17.8726Z" fill="#505565"/>
</g>
<defs>
<filter id="filter0_d" x="0.929688" y="0.09375" width="25.0229" height="23.1632" filterUnits="userSpaceOnUse" color-interpolation-filters="sRGB">
<feFlood flood-opacity="0" result="BackgroundImageFix"/>
<feColorMatrix in="SourceAlpha" type="matrix" values="0 0 0 0 0 0 0 0 0 0 0 0 0 0 0 0 0 0 127 0"/>
<feOffset dy="4"/>
<feGaussianBlur stdDeviation="2"/>
<feColorMatrix type="matrix" values="0 0 0 0 0 0 0 0 0 0 0 0 0 0 0 0 0 0 0.25 0"/>
<feBlend mode="normal" in2="BackgroundImageFix" result="effect1_dropShadow"/>
<feBlend mode="normal" in="SourceGraphic" in2="effect1_dropShadow" result="shape"/>
</filter>
</defs>
</svg>
