<svg height="512pt" viewBox="0 0 512 512" width="512pt" xmlns="http://www.w3.org/2000/svg"><path d="m446 390h2v-226.332031l-36.667969-26.667969 32-20-22-16.667969v-21.332031h26.667969v-20c0-27.0625-21.9375-49-49-49h-341l.007812.019531c-.332031-.003906-.65625-.019531-.984374-.019531-25.96875 0-47.023438 27.488281-47.023438 61.398438 0 27.945312 17.351562 50.601562 38.753906 50.601562h65.324219v168.5l30.585937 19.832031-30.585937 27.332031v89.835938c0 48.832031 25.542969 74.5 57.054687 74.5 2.308594 0 4.578126-.226562 6.796876-.648438l-.035157.648438h268.105469c30.929688 0 56-25.070312 56-56s-25.070312-56-56-56zm0 0" fill="#feda9b"/><path d="m458 381.113281v-217.445312c0-3.199219-1.53125-6.207031-4.117188-8.089844l-24.6875-17.949219 19.4375-12.148437c2.789063-1.742188 4.542969-4.746094 4.691407-8.03125.144531-3.285157-1.332031-6.433594-3.953125-8.417969l-18.039063-13.667969v-6.363281h16.667969c5.523438 0 10-4.476562 10-10v-20c0-32.53125-26.46875-59-59-59h-341c-.101562 0-.195312.0117188-.292969.015625-.230469-.0039062-.453125-.015625-.683593-.015625-15.746094 0-30.375 7.777344-41.191407 21.902344-10.210937 13.332031-15.832031 30.910156-15.832031 49.496094 0 33.414062 21.871094 60.601562 48.753906 60.601562h55.324219v158.5c0 3.390625 1.714844 6.546875 4.558594 8.390625l19.605469 12.710937-20.828126 18.609376c-2.121093 1.894531-3.335937 4.609374-3.335937 7.457031v86.664062c0 .539063.054687 1.066407.136719 1.582031-.082032.519532-.136719 1.046876-.136719 1.585938 0 25.441406 6.570313 46.855469 18.996094 61.925781 12.003906 14.554688 29.074219 22.574219 48.0625 22.574219h274.863281c36.394531 0 66-29.605469 66-66 0-32.292969-23.320312-59.226562-54-64.886719zm-375.925781-269.113281c2.945312-5.550781 4.613281-11.957031 4.613281-18.839844 0-23.054687-14.933594-39.160156-36.320312-39.160156-5.523438 0-10 4.476562-10 10s4.476562 10 10 10c10.21875 0 16.320312 7.164062 16.320312 19.160156 0 12.238282-9.242188 18.839844-17.933594 18.839844-15.585937 0-28.753906-18.59375-28.753906-40.601562 0-28.339844 16.609375-51.398438 37.023438-51.398438 14.140624 0 25.195312 4.394531 32.847656 13.058594 9.429687 10.667968 14.207031 27.976562 14.207031 51.441406v27.5zm56.429687 364.699219c-9.4375-11.445313-14.425781-28.457031-14.425781-49.199219 0-.539062-.054687-1.066406-.136719-1.585938.082032-.515624.136719-1.042968.136719-1.582031v-82.191406l27.25-24.351563c2.324219-2.074218 3.550781-5.117187 3.308594-8.226562-.238281-3.105469-1.914063-5.925781-4.527344-7.621094l-26.03125-16.875v-200.566406c0-28.371094-6.417969-50.066406-19.0625-64.5h293.984375c21.503906 0 39 17.496094 39 39v10h-16.667969c-5.519531 0-10 4.476562-10 10v21.332031c0 3.132813 1.46875 6.082031 3.964844 7.972657l10.433594 7.90625-19.695313 12.308593c-2.820312 1.761719-4.578125 4.808594-4.695312 8.128907-.117188 3.320312 1.425781 6.484374 4.113281 8.4375l32.546875 23.671874v211.242188h-254.234375c-.492187 0-.976563.046875-1.453125.117188-.960938-.070313-1.929688-.117188-2.910156-.117188-21.269532 0-37.933594 17.0625-37.933594 38.839844 0 23.058594 14.933594 39.160156 36.320312 39.160156 5.523438 0 10-4.476562 10-10s-4.476562-10-10-10c-10.21875 0-16.320312-7.164062-16.320312-19.160156 0-12.238282 9.242188-18.839844 17.933594-18.839844 15.585937 0 28.753906 18.59375 28.753906 40.601562 0 28.339844-16.605469 51.398438-37.019531 51.398438-13.09375 0-24.378907-5.289062-32.632813-15.300781zm307.496094 15.300781h-235.207031c.515625-.625 1.03125-1.25 1.53125-1.902344 9.585937-12.515625 15.125-28.777344 15.769531-46.097656h155.90625c5.523438 0 10-4.476562 10-10s-4.476562-10-10-10h-157.71875c-2.070312-9.03125-5.78125-17.214844-10.71875-24h230.4375c25.363281 0 46 20.636719 46 46s-20.636719 46-46 46zm0 0"/><path d="m189.359375 98c2.628906 0 5.199219-1.070312 7.070313-2.929688 1.859374-1.859374 2.929687-4.441406 2.929687-7.070312s-1.070313-5.210938-2.929687-7.070312c-1.871094-1.859376-4.441407-2.929688-7.070313-2.929688-2.640625 0-5.210937 1.070312-7.070313 2.929688-1.859374 1.859374-2.929687 4.441406-2.929687 7.070312s1.070313 5.210938 2.929687 7.070312c1.859376 1.859376 4.429688 2.929688 7.070313 2.929688zm0 0"/><path d="m232 98h144.355469c5.523437 0 10-4.476562 10-10s-4.476563-10-10-10h-144.355469c-5.523438 0-10 4.476562-10 10s4.476562 10 10 10zm0 0"/><path d="m189.355469 154h187c5.523437 0 10-4.476562 10-10s-4.476563-10-10-10h-187c-5.519531 0-10 4.476562-10 10s4.480469 10 10 10zm0 0"/><path d="m189.355469 210h187c5.523437 0 10-4.476562 10-10s-4.476563-10-10-10h-187c-5.519531 0-10 4.476562-10 10s4.480469 10 10 10zm0 0"/><path d="m189.355469 266h187c5.523437 0 10-4.476562 10-10s-4.476563-10-10-10h-187c-5.519531 0-10 4.476562-10 10s4.480469 10 10 10zm0 0"/><path d="m189.355469 322h187c5.523437 0 10-4.476562 10-10s-4.476563-10-10-10h-187c-5.519531 0-10 4.476562-10 10s4.480469 10 10 10zm0 0"/><path d="m422.871094 424c-2.632813 0-5.210938 1.070312-7.070313 2.929688-1.859375 1.859374-2.929687 4.441406-2.929687 7.070312s1.066406 5.210938 2.929687 7.070312c1.859375 1.859376 4.4375 2.929688 7.070313 2.929688 2.628906 0 5.207031-1.070312 7.066406-2.929688 1.863281-1.859374 2.933594-4.441406 2.933594-7.070312s-1.070313-5.210938-2.933594-7.070312c-1.859375-1.859376-4.4375-2.929688-7.066406-2.929688zm0 0"/></svg>