<svg height="512pt" viewBox="0 -163 512 512" width="512pt" xmlns="http://www.w3.org/2000/svg">
    <path
        d="m256 57.53125c-78.738281 0-149.746094-8.453125-201.007812-22.015625-8.460938-2.238281-17.710938-.894531-24.402344 4.75-13.640625 11.507813-23.089844 36.449219-23.089844 65.363281 0 28.910156 9.449219 53.851563 23.089844 65.359375 6.691406 5.644531 15.941406 6.988281 24.402344 4.746094 51.261718-13.558594 122.269531-22.011719 201.007812-22.011719 82.605469 0 156.707031 9.304688 208.417969 24.046875v-144.289062c-51.710938 14.746093-125.8125 24.050781-208.417969 24.050781zm0 0"
        fill="#f4dbb3" />
    <path
        d="m260.921875 137.691406c-93.34375 0-177.914063 7.664063-240.910156 20.097656 3.109375 5.332032 6.640625 9.878907 10.578125 13.199219 6.691406 5.644531 15.941406 6.988281 24.402344 4.746094 51.261718-13.558594 122.269531-22.011719 201.007812-22.011719 82.605469 0 156.707031 9.304688 208.417969 24.046875v-26.421875c-57.441407-8.578125-127.5625-13.65625-203.496094-13.65625zm0 0"
        fill="#eac89f" />
    <path
        d="m231.953125 105.628906c0-26.566406 14.496094-48.144531 32.203125-48.144531l-32.203125-.238281c-17.710937 0-32.066406 21.816406-32.066406 48.382812 0 26.5625 14.617187 48.355469 32.324219 48.355469l31.804687-.261719c-17.707031 0-32.0625-21.53125-32.0625-48.09375zm0 0"
        fill="#ff8086" />
    <path
        d="m231.953125 153.722656h32.0625c-17.707031 0-32.0625-21.535156-32.0625-48.097656h-32.066406c0 26.566406 14.355469 48.097656 32.066406 48.097656zm0 0"
        fill="#db4655" />
    <path
        d="m504.5 105.628906c0-39.847656-17.945312-72.148437-40.082031-72.148437s-40.078125 32.300781-40.078125 72.148437c0 39.84375 17.941406 72.144532 40.078125 72.144532s40.082031-32.300782 40.082031-72.144532zm0 0"
        fill="#d2af8c" />
    <path
        d="m239.96875 105.628906c0 13.28125-10.769531 24.046875-24.050781 24.046875s-24.046875-10.765625-24.046875-24.046875 10.765625-24.050781 24.046875-24.050781 24.050781 10.769531 24.050781 24.050781zm0 0"
        fill="#ff9a9f" />
    <path
        d="m435.472656 125.667969c0-17.984375 5.0625-33.84375 12.761719-43.207031 2.933594-3.566407.699219-8.898438-3.921875-8.898438h-15.757812c-2.675782 9.667969-4.21875 20.53125-4.21875 32.066406 0 39.84375 17.945312 72.144532 40.082031 72.144532-15.984375 0-28.945313-23.328126-28.945313-52.105469zm0 0"
        fill="#eac89f" />
    <path
        d="m464.417969 33.480469c-11.316407 0-21.519531 8.480469-28.808594 22.058593 4.394531-2.980468 9.136719-4.6875 14.113281-4.6875 22.136719 0 40.082032 32.300782 40.082032 72.144532 0 19.472656-4.308594 37.109375-11.273438 50.085937 15.164062-10.285156 25.96875-36.566406 25.96875-67.453125 0-39.847656-17.945312-72.148437-40.082031-72.148437zm0 0"
        fill="#eac89f" />
    <path
        d="m464.417969 25.980469c-3.527344 0-6.953125.617187-10.242188 1.78125-7.0625 2.503906-14.351562 4.292969-21.679687 5.847656-42.046875 8.921875-93.300782 14.515625-147.199219 16.011719 5.269531-2.953125 10.039063-6.164063 13.335937-9.460938 9.175782-9.175781 9.175782-24.105468 0-33.28125-9.175781-9.171875-24.105468-9.171875-33.28125 0-6.585937 6.589844-12.824218 19.015625-17.367187 29.660156-4.546875-10.644531-10.785156-23.070312-17.371094-29.660156-9.175781-9.171875-24.105469-9.171875-33.28125 0-9.171875 9.175782-9.171875 24.105469 0 33.28125 4.515625 4.511719 11.769531 8.859375 19.3125 12.613282-9.074219 4.574218-16.578125 14.652343-20.78125 28.515624-7.015625 5.792969-11.496093 14.550782-11.496093 24.335938s4.480468 18.542969 11.492187 24.335938c2.070313 6.832031 4.929687 12.738281 8.382813 17.519531-59.800782 2.929687-115.335938 10.863281-157.527344 22.746093-15.480469-.925781-31.714844-26.636718-31.714844-64.597656 0-37.957031 16.230469-63.667968 31.710938-64.601562 37.226562 10.488281 84.429687 17.9375 136.628906 21.546875.175781.011719.351562.019531.523437.019531 4.046875 0 7.4375-3.25 7.492188-7.414062.054687-4.03125-3.265625-7.3125-7.289063-7.589844-51.601562-3.585938-98.082031-10.957032-134.429687-21.320313-.0625-.019531-1.292969-.269531-2.480469-.269531-26.476562.371094-47.15625 35.203125-47.15625 79.628906 0 44.421875 20.683594 79.257813 47.160156 79.625 1.441406 0 2.417969-.253906 2.476563-.269531 52.960937-15.101563 128.175781-23.761719 206.363281-23.761719 65.386719 0 128.6875 6.0625 178.636719 16.878906 6.558593 1.421876 13.078125 3.078126 19.398437 5.335938 2.734375.980469 5.558594 1.570312 8.457032 1.753906.636718.054688 1.28125.082032 1.925781.082032 26.683593 0 47.582031-34.984376 47.582031-79.648438 0-44.660156-20.898438-79.644531-47.582031-79.644531zm-188.457031-8.492188c1.664062-1.664062 3.847656-2.496093 6.03125-2.496093 2.1875 0 4.371093.832031 6.035156 2.496093 3.328125 3.324219 3.328125 8.738281 0 12.066407-5.152344 5.152343-16.882813 10.824218-27.164063 15.09375 4.269531-10.28125 9.945313-22.011719 15.097657-27.160157zm-68.019532 12.066407c-3.328125-3.328126-3.328125-8.742188 0-12.066407s8.738282-3.328125 12.066406 0c5.152344 5.152344 10.828126 16.886719 15.097657 27.164063-10.277344-4.265625-22.003907-9.9375-27.164063-15.097656zm-8.570312 76.074218c0-9.125 7.421875-16.550781 16.546875-16.550781s16.550781 7.425781 16.550781 16.550781-7.425781 16.546875-16.550781 16.546875-16.546875-7.421875-16.546875-16.546875zm30.734375 40.914063c-5.949219 0-11.085938-3.699219-14.722657-9.382813.179688.003906.355469.015625.539063.015625 4.792969 0 9.339844-1.082031 13.417969-3.003906 1.710937 4.59375 3.816406 8.703125 6.242187 12.25-1.828125.035156-3.652343.078125-5.476562.121094zm-.757813-69.457031c-4.074218-1.925782-8.628906-3.007813-13.425781-3.007813-.175781 0-.347656.011719-.523437.011719 3.644531-5.671875 9.101562-9.371094 14.675781-9.371094 1.835937.042969 3.683593.078125 5.53125.113281-2.433594 3.550781-4.539063 7.664063-6.257813 12.253907zm201.113282 84.828124c-48.671876-9.847656-108.46875-15.429687-170.191407-15.679687-.085937 0-.171875-.011719-.261719-.011719-7.375 0-14.6875-9.128906-18.265624-22.503906 3.601562-5.125 5.726562-11.363281 5.726562-18.09375 0-6.726562-2.125-12.964844-5.726562-18.089844 3.574218-13.339844 10.949218-22.507812 18.269531-22.507812.089843 0 .179687-.007813.273437-.011719 61.71875-.25 121.511719-5.832031 170.179688-15.679687-8.460938 14.308593-13.625 34.101562-13.625 56.289062s5.160156 41.980469 13.621094 56.289062zm1.625-64.183593c.363281-5.929688 1.132812-11.5 2.230468-16.667969h5.683594c-3.214844 4.695312-5.902344 10.332031-7.914062 16.667969zm32.332031 72.542969c-10.144531 0-21.445313-18.320313-21.445313-44.605469 0-26.285157 11.300782-44.605469 21.445313-44.605469 4.144531 0 7.5-3.359375 7.5-7.5s-3.355469-7.5-7.5-7.5h-25.59375c6.363281-15.765625 16.175781-25.082031 25.59375-25.082031 15.734375 0 32.582031 25.976562 32.582031 64.644531 0 38.671875-16.847656 64.648438-32.582031 64.648438zm0 0" />
    </svg>